<svg xmlns="http://www.w3.org/2000/svg" viewBox="0 0 639.71 263.44"><defs><style>.cls-1,.cls-2{isolation:isolate;}.cls-2{font-size:90px;font-family:SFProDisplay-Light, SF Pro Display;font-weight:300;letter-spacing:-0.06em;}</style></defs><g id="레이어_2" data-name="레이어 2"><g id="레이어_1-2" data-name="레이어 1"><g class="cls-1"><path d="M52.09,64.42h-6V34.67H9V64.42H3V1H9V29.22H46.07V1h6Z"/><path d="M102.23,59v5.45H64V1h38.28V6.46H69.93V29.27H100.6v5.36H69.93V59Z"/><path d="M150.22,59v5.45H112.47V1h6V59Z"/><path d="M196.45,59v5.45H158.7V1h6V59Z"/><path d="M228.13,0q13.27,0,21.05,8.83T257,32.74q0,15.07-7.78,23.88t-21.05,8.81q-13.27,0-21-8.81t-7.75-23.88q0-15.08,7.77-23.91T228.13,0Zm16.55,12.92q-6.13-7.34-16.55-7.34t-16.52,7.34q-6.11,7.33-6.11,19.82t6.11,19.8q6.1,7.31,16.52,7.31t16.55-7.34q6.12-7.34,6.13-19.77T244.68,12.92Z"/><path d="M290.4,64.82a4.06,4.06,0,0,1-4.09-4.09,4,4,0,0,1,1.19-2.94,4,4,0,0,1,2.9-1.19,4,4,0,0,1,3,1.19,4,4,0,0,1,1.18,2.94,3.93,3.93,0,0,1-1.18,2.9A4,4,0,0,1,290.4,64.82ZM287.37,1h6.06l-.35,43.37h-5.32Z"/></g><g class="cls-1"><path d="M219,160.42h-6V97h6Z"/><path d="M235.72,118.46h-5.41V97h5.41Z"/><path d="M308.14,160.42h-5.62v-52h-.27l-22.06,51.73H275l-22-51.73h-.27v52h-5.62V97H254l23.51,55.5h.26L301.2,97h6.94Z"/></g><g class="cls-1"><path d="M349.41,160.42H338.07V97H378.5v9.58H349.41v18.72H376v9.23H349.41Z"/><path d="M423.76,160.42,418.36,144H395l-5.4,16.39H377.93L400.43,97h12.78l22.5,63.41Zm-17.23-52.2-8.87,27.07h18l-8.84-27.07Z"/><path d="M453.42,160.42H442.48V97h9.85l31.46,44.43h.4V97h10.89v63.41h-9.75L453.82,116h-.4Z"/><path d="M533.62,161.48q-13.62,0-21.55-8.79t-7.93-24q0-15.12,8-23.93T533.62,96q11.08,0,18.68,6.3a23.79,23.79,0,0,1,8.66,16.5H549.8a15.56,15.56,0,0,0-5.56-9.58,16.39,16.39,0,0,0-10.62-3.6,15.67,15.67,0,0,0-13,6.26q-4.85,6.27-4.85,16.86t4.83,16.91a15.7,15.7,0,0,0,13.1,6.24,17.08,17.08,0,0,0,10.57-3.22,15.07,15.07,0,0,0,5.6-8.95H561q-1.5,10.2-8.79,16T533.62,161.48Z"/><path d="M596,160.42h-11.3v-25L562.5,97h12.43l15.38,27.6h.27L605.91,97h12.35L596,135.42Z"/></g><text class="cls-2" transform="translate(619.45 160.42)">,</text><g class="cls-1"><path d="M38.63,209.29,23,262.42H17.45L0,199H6.24l14,54.19h.27L35.82,199h6L57.08,253.2h.31L71.32,199h6.29L60.12,262.42H54.58L39,209.29Z"/><path d="M123.75,257v5.44H85.47V199h38.28v5.45H91.45v22.81h30.67v5.36H91.45V257Z"/><path d="M156.93,262.42H134V199H156.8q8.17,0,13.22,4.31a14.17,14.17,0,0,1,5.06,11.34A14.33,14.33,0,0,1,171.8,224a13.52,13.52,0,0,1-8.32,5v.31a17.28,17.28,0,0,1,10.79,5,14.83,14.83,0,0,1,4.1,10.74q0,8.13-5.71,12.77T156.93,262.42Zm-17-58.09v22.85h13.79q7.22,0,11.23-3.12a10.45,10.45,0,0,0,4-8.75,9.81,9.81,0,0,0-3.58-8.08q-3.59-2.89-9.91-2.9Zm0,52.78h16.12q7.74,0,11.93-3.23a10.9,10.9,0,0,0,4.2-9.17,10.68,10.68,0,0,0-4.37-9.14q-4.38-3.19-12.55-3.2H140Z"/><path d="M205.36,199h21.57q9.1,0,14.73,5.45t5.62,14.28q0,8.83-5.67,14.31t-14.72,5.47H211.33v23.9h-6Zm6,5.36v28.79h14.2q7.29,0,11.45-3.83t4.15-10.59q0-6.77-4.13-10.57t-11.47-3.8Z"/><path d="M261.87,199v40.91q0,8.09,5,13t13.58,4.92q8.61,0,13.57-4.92t5-13V199h6v41.27q0,10.36-6.64,16.76t-17.92,6.4q-11.3,0-17.91-6.4t-6.62-16.76V199Z"/><path d="M339.74,262.42H316.8V199h22.81q8.17,0,13.23,4.31a14.16,14.16,0,0,1,5.05,11.34,14.37,14.37,0,0,1-3.27,9.31,13.57,13.57,0,0,1-8.33,5v.31a17.28,17.28,0,0,1,10.79,5A14.8,14.8,0,0,1,361.19,245q0,8.13-5.72,12.77T339.74,262.42Zm-17-58.09v22.85h13.8q7.2,0,11.23-3.12a10.45,10.45,0,0,0,4-8.75,9.82,9.82,0,0,0-3.59-8.08q-3.57-2.89-9.91-2.9Zm0,52.78h16.13q7.72,0,11.93-3.23a10.92,10.92,0,0,0,4.19-9.17,10.65,10.65,0,0,0-4.37-9.14c-2.91-2.13-7.1-3.2-12.54-3.2H322.78Z"/><path d="M407.51,257v5.44H369.76V199h6v58Z"/><path d="M422,262.42h-6V199h6Z"/><path d="M430.75,245.2h6a12.29,12.29,0,0,0,5.41,9.25A20.61,20.61,0,0,0,454.53,258q7.11,0,11.71-3.48a10.62,10.62,0,0,0,4.59-8.83,9.13,9.13,0,0,0-3.21-7.23q-3.21-2.79-10.28-4.59l-7.87-2q-8.84-2.25-12.9-6.15a13.48,13.48,0,0,1-4.06-10.16,15.48,15.48,0,0,1,6.15-12.59q6.15-4.94,15.56-4.94,9.22,0,15.36,4.9A16,16,0,0,1,476,215.36h-6a11.56,11.56,0,0,0-4.79-8.64A18,18,0,0,0,454,203.45a17.5,17.5,0,0,0-11,3.32,10.29,10.29,0,0,0-4.33,8.54,8.22,8.22,0,0,0,3.12,6.66c2.08,1.72,5.46,3.17,10.15,4.38l6.86,1.75q9.57,2.42,13.84,6.38A13.68,13.68,0,0,1,477,245a16.31,16.31,0,0,1-6.24,13.38q-6.24,5-16.74,5-9.93,0-16.35-5A17.34,17.34,0,0,1,430.75,245.2Z"/><path d="M534.86,262.42h-6V232.67H491.75v29.75h-6V199h6v28.21h37.09V199h6Z"/><path d="M585,257v5.44H546.72V199H585v5.45H552.7v22.81h30.67v5.36H552.7V257Z"/><path d="M601.22,236.45v26h-6V199h22.37q9.27,0,14.79,5t5.51,13.52a18.6,18.6,0,0,1-3.6,11.51,17.5,17.5,0,0,1-10,6.42l15.38,26.93h-7l-14.59-26H601.22Zm0-32.08v26.77h15.9q6.95,0,10.77-3.52t3.82-9.89q0-6.28-3.93-9.82t-10.88-3.54Z"/></g></g></g></svg>