<svg xmlns="http://www.w3.org/2000/svg" viewBox="0 0 185.89 94.81"><defs><style>.cls-1{fill:#282b26;}.cls-2{fill:#1e3e87;}</style></defs><g id="레이어_2" data-name="레이어 2"><g id="레이어_1-2" data-name="레이어 1"><path class="cls-1" d="M18.21,5.86c-1.12,0-1.81.28-2.07.85a10.22,10.22,0,0,0-.55,2.49,25,25,0,0,0-.26,3.37,1.32,1.32,0,0,0,.59,1.25,4.8,4.8,0,0,0,2.2.34,2.61,2.61,0,0,0,1.58-.39,2.15,2.15,0,0,0,.71-1.32c.37-1.77,1.14-2.66,2.3-2.66q3,0,3,7.13,0,4.51-1.29,6.64a2.41,2.41,0,0,1-2.15,1.29c-1,0-1.51-.64-1.66-1.93a8.28,8.28,0,0,0-.3-1.75,2.59,2.59,0,0,0-.7-1,3.33,3.33,0,0,0-2.34-.76,2.11,2.11,0,0,0-1.49.39,2,2,0,0,0-.34,1.49c0,.13,0,.89,0,2.27q0,4.23.88,5.16a1.4,1.4,0,0,0,.6.47,11.71,11.71,0,0,0,1.6.31,1.61,1.61,0,0,1,1.07.66A2,2,0,0,1,20,31.47c0,1.25-.73,2.06-2.2,2.42a40.79,40.79,0,0,1-8.91.75,27.41,27.41,0,0,1-6.93-.58,2.76,2.76,0,0,1-1.39-1A2.51,2.51,0,0,1,0,31.52a2.13,2.13,0,0,1,.78-1.73,8.74,8.74,0,0,1,1.34-.62,2.78,2.78,0,0,0,1.64-2.49A126.85,126.85,0,0,0,4.2,13a34.1,34.1,0,0,0-.32-6A2.6,2.6,0,0,0,2.34,5.1a5.5,5.5,0,0,1-1.6-.94A1.63,1.63,0,0,1,.37,3a2.12,2.12,0,0,1,1-1.79A4.45,4.45,0,0,1,4,.49c.65,0,1.61.05,2.86.14C9.51.85,12.69,1,16.38,1A92,92,0,0,0,28.32.46a6.13,6.13,0,0,1,.64,0,2.15,2.15,0,0,1,1.63,1,9.58,9.58,0,0,1,2.15,6.06A3.8,3.8,0,0,1,32,9.86a2.22,2.22,0,0,1-1.85.91,2.08,2.08,0,0,1-1.3-.35A26,26,0,0,1,26.64,8,5.17,5.17,0,0,0,24,6.37,31.77,31.77,0,0,0,18.21,5.86Z"/><path class="cls-1" d="M61.23,17.29l4.61,9.88a7.28,7.28,0,0,0,1.1,1.8,2.52,2.52,0,0,0,1.35.57c1.17.18,1.75.77,1.75,1.78,0,1.19-.71,2-2.14,2.57a22.66,22.66,0,0,1-7,.78,51.83,51.83,0,0,1-8.17-.47,3.68,3.68,0,0,1-1.95-.89A2.13,2.13,0,0,1,50,31.69a1.62,1.62,0,0,1,.38-1.14,3.59,3.59,0,0,1,1.41-.74Q53,29.42,53,28.49c0-1.09-.66-1.73-2-1.93a47.73,47.73,0,0,0-6-.29,10.62,10.62,0,0,0-3.89.39,1.94,1.94,0,0,0-.68.88,2.82,2.82,0,0,0-.29,1.22.91.91,0,0,0,.2.7A6.71,6.71,0,0,0,41.7,30a1.77,1.77,0,0,1,1.49,1.76c0,1.94-2.32,2.9-7,2.9a23.21,23.21,0,0,1-5.81-.53,2.17,2.17,0,0,1-1.71-2.25,1.7,1.7,0,0,1,.38-1.17,3.3,3.3,0,0,1,1.35-.76,5.28,5.28,0,0,0,2.41-1.57A24.31,24.31,0,0,0,35.18,24l3.44-7.54a59.31,59.31,0,0,0,2.55-6.21,14,14,0,0,0,.68-4,12.87,12.87,0,0,1,.25-2.92,3.67,3.67,0,0,1,1-1.6A5.76,5.76,0,0,1,47.44,0a7.14,7.14,0,0,1,4.71,1.93Q55.27,4.57,61.23,17.29Zm-17,3.07H49c.88,0,1.32-.19,1.32-.58q0-.81-1.83-4a13.16,13.16,0,0,0-1.27-1.93,1.27,1.27,0,0,0-.93-.49c-.58,0-1.07.55-1.46,1.64-.07.15-.3.72-.71,1.73a13.86,13.86,0,0,0-1,3C43.12,20.16,43.49,20.36,44.24,20.36Z"/><path class="cls-1" d="M84.45,2,96.61,12.65a5.05,5.05,0,0,0,2.46,1.49c.85,0,1.27-.91,1.27-2.71a16.12,16.12,0,0,0-.36-4.2,2.84,2.84,0,0,0-1.54-1.69,3.63,3.63,0,0,1-1.35-1A2.2,2.2,0,0,1,96.7,3.2c0-1.37.94-2.25,2.81-2.64a22.61,22.61,0,0,1,4-.24,19.56,19.56,0,0,1,5.1.44c1.5.45,2.24,1.32,2.24,2.58A2.59,2.59,0,0,1,109,5.74a3.93,3.93,0,0,0-1,.56,2,2,0,0,0-.46.73,19,19,0,0,0-.69,6.1v8q0,1.83,0,5a25,25,0,0,1-.51,6.2q-.66,2.37-2.4,2.37a2.56,2.56,0,0,1-1.3-.32,13.38,13.38,0,0,1-1.82-1.46l-14.48-13a4.28,4.28,0,0,0-2.51-1.37c-1,0-1.49,1.38-1.49,4.13a18.32,18.32,0,0,0,.38,4.64,2.88,2.88,0,0,0,1.55,1.83A2.4,2.4,0,0,1,86,31.25q0,3.39-7.3,3.39a12.26,12.26,0,0,1-5.11-.86,2.69,2.69,0,0,1-1.82-2.46,1.89,1.89,0,0,1,.34-1.24A6.35,6.35,0,0,1,73.61,29,3.15,3.15,0,0,0,75,26.54a73.5,73.5,0,0,0,.42-9.06,40.84,40.84,0,0,0-.74-9.18A4.08,4.08,0,0,0,74,6.74a4,4,0,0,0-1.37-1,4.69,4.69,0,0,1-1.52-1,1.84,1.84,0,0,1-.43-1.24c0-1.57,1.34-2.55,4-3A39.53,39.53,0,0,1,79.49.32a9.8,9.8,0,0,1,2.85.3A7.16,7.16,0,0,1,84.45,2Z"/><path class="cls-1" d="M130.49.15a16,16,0,0,1,6.89,1.56,6.28,6.28,0,0,0,2.17.73A7.12,7.12,0,0,0,141,2.22a3,3,0,0,1,.7-.07,2.82,2.82,0,0,1,2.23,1.17,10.67,10.67,0,0,1,2.34,7,4.84,4.84,0,0,1-2,4.32,4.32,4.32,0,0,1-2.46.74,3.5,3.5,0,0,1-2-.54A5.31,5.31,0,0,1,138.21,13a21.86,21.86,0,0,0-1.71-2.77,7.8,7.8,0,0,0-1.61-1.52,8.49,8.49,0,0,0-5-1.66,4.84,4.84,0,0,0-4,1.82,7.51,7.51,0,0,0-1.48,4.87,14.49,14.49,0,0,0,2.13,7.69,9.15,9.15,0,0,0,8.25,4.66,12.13,12.13,0,0,0,3.92-.66,7.84,7.84,0,0,0,3-1.71,2.62,2.62,0,0,1,1.52-.88,1.8,1.8,0,0,1,1.46.8,3,3,0,0,1,.61,1.91,7.39,7.39,0,0,1-.85,3.18,8.36,8.36,0,0,1-2,2.76,5.53,5.53,0,0,1-2.13.73,10.25,10.25,0,0,0-2.46.9,17.14,17.14,0,0,1-7.52,1.73A19.59,19.59,0,0,1,122.22,33a16.61,16.61,0,0,1-7.45-6.52,16.51,16.51,0,0,1-2.69-8.93,16.1,16.1,0,0,1,3.37-9.89,18.76,18.76,0,0,1,7.65-5.93A18.33,18.33,0,0,1,130.49.15Z"/><path class="cls-1" d="M157.62.32a39.33,39.33,0,0,1,7.3.51,3.68,3.68,0,0,1,1.84.87,2,2,0,0,1,.7,1.47,2.06,2.06,0,0,1-.54,1.3,3.07,3.07,0,0,0-.78,1.44,6,6,0,0,0,1.39,2.81c.6.83,1.17,1.24,1.71,1.24a1.65,1.65,0,0,0,1-.38,8.68,8.68,0,0,0,1.27-1.35,3.54,3.54,0,0,0,1-1.91,1.61,1.61,0,0,0-.11-.66,10.1,10.1,0,0,0-.79-1,2.18,2.18,0,0,1-.49-1.51q0-2.76,7.47-2.76A23.56,23.56,0,0,1,184,.73a2.6,2.6,0,0,1,1.33.93,2.36,2.36,0,0,1,.53,1.46,1.86,1.86,0,0,1-.61,1.52,4.74,4.74,0,0,1-2.13.78,5.62,5.62,0,0,0-2.41,1.06A39.87,39.87,0,0,0,177,10.21a26.25,26.25,0,0,0-4.14,5.28,12.05,12.05,0,0,0-.82,5.07c0,1.88.07,3.63.22,5.25a5.13,5.13,0,0,0,.47,2.06A3.37,3.37,0,0,0,174.12,29a2.71,2.71,0,0,1,1.78,2.32q0,3.33-9.81,3.32a35.78,35.78,0,0,1-7.62-.78q-3-.66-3-2.61c0-1,.62-1.73,1.86-2.17A2.74,2.74,0,0,0,159,27.83q.78-1.68.78-8a9.38,9.38,0,0,0-.39-3A11.76,11.76,0,0,0,157.71,14,61.77,61.77,0,0,0,152,7.54a7.17,7.17,0,0,0-2.45-1.68,9.35,9.35,0,0,1-2-.9,2,2,0,0,1-.68-1.57c0-1.09.82-1.87,2.47-2.35A32.88,32.88,0,0,1,157.62.32Z"/><path class="cls-2" d="M18.21,65.86c-1.12,0-1.81.28-2.07.85a10.22,10.22,0,0,0-.55,2.49,25,25,0,0,0-.26,3.37,1.32,1.32,0,0,0,.59,1.25,4.8,4.8,0,0,0,2.2.34,2.61,2.61,0,0,0,1.58-.39,2.15,2.15,0,0,0,.71-1.32c.37-1.77,1.14-2.66,2.3-2.66q3,0,3,7.13,0,4.52-1.29,6.64a2.41,2.41,0,0,1-2.15,1.29c-1,0-1.51-.64-1.66-1.93a8.28,8.28,0,0,0-.3-1.75,2.59,2.59,0,0,0-.7-1,3.33,3.33,0,0,0-2.34-.76,2.11,2.11,0,0,0-1.49.39,2,2,0,0,0-.34,1.49c0,.13,0,.89,0,2.27q0,4.23.88,5.16a1.4,1.4,0,0,0,.6.47,11.71,11.71,0,0,0,1.6.31,1.61,1.61,0,0,1,1.07.66A2,2,0,0,1,20,91.47c0,1.25-.73,2.06-2.2,2.42a40.79,40.79,0,0,1-8.91.75,27.41,27.41,0,0,1-6.93-.58,2.76,2.76,0,0,1-1.39-1A2.51,2.51,0,0,1,0,91.52a2.13,2.13,0,0,1,.78-1.73,8.74,8.74,0,0,1,1.34-.62,2.78,2.78,0,0,0,1.64-2.49A126.85,126.85,0,0,0,4.2,73a34.1,34.1,0,0,0-.32-6A2.6,2.6,0,0,0,2.34,65.1a5.5,5.5,0,0,1-1.6-.94A1.63,1.63,0,0,1,.37,63a2.12,2.12,0,0,1,1-1.79A4.45,4.45,0,0,1,4,60.49c.65,0,1.61,0,2.86.14,2.65.22,5.83.32,9.52.32a92,92,0,0,0,11.94-.49,6.13,6.13,0,0,1,.64,0,2.15,2.15,0,0,1,1.63,1,9.58,9.58,0,0,1,2.15,6.06A3.8,3.8,0,0,1,32,69.86a2.22,2.22,0,0,1-1.85.91,2.08,2.08,0,0,1-1.3-.35A26,26,0,0,1,26.64,68,5.17,5.17,0,0,0,24,66.37,31.77,31.77,0,0,0,18.21,65.86Z"/><path class="cls-2" d="M57.86,60.15a17.47,17.47,0,0,1,11,3.59A18.25,18.25,0,0,1,74,70.13a17.48,17.48,0,0,1,1.93,7.81,15.6,15.6,0,0,1-3.81,10.31,17.79,17.79,0,0,1-8.42,5.54,21,21,0,0,1-6.42,1,19.3,19.3,0,0,1-8.08-1.75,16.34,16.34,0,0,1-7.3-6.42,17.09,17.09,0,0,1-2.56-9.16A16.71,16.71,0,0,1,50.49,61.42,20.4,20.4,0,0,1,57.86,60.15Zm-2.32,7A3.7,3.7,0,0,0,52.29,69a5.74,5.74,0,0,0-.92,3.25,22,22,0,0,0,1.12,6.39,28.71,28.71,0,0,0,2.83,6.43A6.06,6.06,0,0,0,57.19,87a4.09,4.09,0,0,0,2.26.71,3.66,3.66,0,0,0,3-1.39,5.6,5.6,0,0,0,1.13-3.66,23.55,23.55,0,0,0-1-6.37,22,22,0,0,0-2.46-5.84A8,8,0,0,0,58,68.06,4.7,4.7,0,0,0,55.54,67.15Z"/><path class="cls-2" d="M100,71.5V82.71c0,2.52.22,4.15.65,4.88s1.67,1.29,3.4,1.29a7.06,7.06,0,0,0,4.39-1.22,6.46,6.46,0,0,0,2.25-3.81c.24-1.06.8-1.58,1.66-1.58a2.46,2.46,0,0,1,2.11,1.16,5.06,5.06,0,0,1,.82,3A12,12,0,0,1,113,92.91a5.94,5.94,0,0,1-1.24,1.5,2.1,2.1,0,0,1-1.3.4l-5.42-.65H88a5,5,0,0,1-2.37-.4,1.8,1.8,0,0,1-1-1.68,1.36,1.36,0,0,1,.33-1,6.58,6.58,0,0,1,1.6-.94,3.14,3.14,0,0,0,1.78-1.86,29.15,29.15,0,0,0,.32-5.83q0-2.25-.12-6.47c-.09-2.7-.13-4.74-.15-6.11a7.62,7.62,0,0,0-.31-2.67,1.92,1.92,0,0,0-1.28-1,8.45,8.45,0,0,1-2.05-.9A1.76,1.76,0,0,1,84,63.86c0-1.19,1-2.09,3-2.71a22.71,22.71,0,0,1,6.74-.81,37.22,37.22,0,0,1,7.08.49q3,.66,3,2.64a1.59,1.59,0,0,1-.4,1.19,7.67,7.67,0,0,1-2,1,2,2,0,0,0-1.17,1.42A24.09,24.09,0,0,0,100,71.5Z"/><path class="cls-2" d="M132.62,60.32a26.75,26.75,0,0,1,5.25.49q3.31.66,3.32,2.8a1.52,1.52,0,0,1-.33,1.07,7.21,7.21,0,0,1-1.68,1,3.2,3.2,0,0,0-1.47,2.47,48.66,48.66,0,0,0-.36,7.42q0,9.33.47,11.55a2.37,2.37,0,0,0,.52,1.08,4.31,4.31,0,0,0,1.24.82,2.32,2.32,0,0,1,1.61,2.13c0,1.3-1,2.19-3,2.68a34.11,34.11,0,0,1-7.89.78c-5.3,0-8-1-8-3,0-.74.52-1.42,1.57-2.05a2.86,2.86,0,0,0,1.41-2,91.21,91.21,0,0,0,.47-11.81c0-4.17-.22-6.84-.64-8a3.63,3.63,0,0,0-1.63-1.81,5.8,5.8,0,0,1-1.35-1.1,1.74,1.74,0,0,1-.34-1.12,1.89,1.89,0,0,1,1-1.67,11.35,11.35,0,0,1,3.58-1.11A31.13,31.13,0,0,1,132.62,60.32Z"/><path class="cls-2" d="M167.85,60.15a17.49,17.49,0,0,1,11,3.59A18.47,18.47,0,0,1,184,70.13a17.48,17.48,0,0,1,1.93,7.81,15.6,15.6,0,0,1-3.81,10.31,17.89,17.89,0,0,1-8.42,5.54,21.1,21.1,0,0,1-6.42,1,19.27,19.27,0,0,1-8.08-1.75,16.29,16.29,0,0,1-7.3-6.42,17.09,17.09,0,0,1-2.57-9.16,16.75,16.75,0,0,1,11.18-16.06A20.45,20.45,0,0,1,167.85,60.15Zm-2.32,7A3.7,3.7,0,0,0,162.28,69a5.67,5.67,0,0,0-.93,3.25,22,22,0,0,0,1.13,6.39,28.26,28.26,0,0,0,2.83,6.43,5.86,5.86,0,0,0,1.87,1.9,4.08,4.08,0,0,0,2.25.71,3.65,3.65,0,0,0,3-1.39,5.6,5.6,0,0,0,1.14-3.66,24,24,0,0,0-.95-6.37,22.32,22.32,0,0,0-2.47-5.84A7.87,7.87,0,0,0,168,68.06,4.63,4.63,0,0,0,165.53,67.15Z"/></g></g></svg>