<svg xmlns="http://www.w3.org/2000/svg" viewBox="0 0 215.15 215.15"><defs><style>.cls-1,.cls-2{fill:#1e3e87;}.cls-2{font-size:22px;font-family:SFProDisplay-Regular, SF Pro Display;}</style></defs><g id="레이어_2" data-name="레이어 2"><g id="레이어_1-2" data-name="레이어 1"><path class="cls-1" d="M107.58,1A106.58,106.58,0,1,1,1,107.58,106.7,106.7,0,0,1,107.58,1m0-1A107.58,107.58,0,1,0,215.15,107.58,107.57,107.57,0,0,0,107.58,0Z"/><text class="cls-2" transform="translate(107.38 29.92) rotate(5.39)">G</text><text class="cls-2" transform="translate(122.18 31.4) rotate(15.16)">E</text><text class="cls-2" transform="translate(133.36 34.36) rotate(24)">T</text><text class="cls-2" transform="matrix(0.87, 0.5, -0.5, 0.87, 144.57, 39.57)"> </text><text class="cls-2" transform="matrix(0.83, 0.55, -0.55, 0.83, 148.28, 41.7)">I</text><text class="cls-2" transform="translate(152.2 43.87) rotate(40.56)">N</text><text class="cls-2" transform="matrix(0.68, 0.74, -0.74, 0.68, 163.32, 53.77)"> </text><text class="cls-2" transform="matrix(0.59, 0.8, -0.8, 0.59, 166.28, 56.66)">T</text><text class="cls-2" transform="translate(173.15 65.52) rotate(63.07)">O</text><text class="cls-2" transform="translate(180.13 79.19) rotate(74.19)">U</text><text class="cls-2" transform="translate(184.16 93.23) rotate(84.92)">C</text><text class="cls-2" transform="translate(185.52 107.57) rotate(95.53)">H</text><text class="cls-2" transform="matrix(-0.22, 0.98, -0.98, -0.22, 183.78, 122.37)"> </text><text class="cls-2" transform="matrix(-0.27, 0.96, -0.96, -0.27, 182.85, 126.55)"> </text><text class="cls-2" transform="translate(181.7 130.68) rotate(108.94)"> </text><text class="cls-2" transform="translate(180.3 134.76) rotate(112.16)"> </text><text class="cls-2" transform="translate(178.7 138.72) rotate(115.33)"> </text><text class="cls-2" transform="translate(176.86 142.61) rotate(118.53)"> </text><text class="cls-2" transform="matrix(-0.58, 0.81, -0.81, -0.58, 175.25, 146.35)">G</text><text class="cls-2" transform="matrix(-0.71, 0.7, -0.7, -0.71, 166.52, 158.39)">E</text><text class="cls-2" transform="translate(158.34 166.59) rotate(144.02)">T</text><text class="cls-2" transform="translate(148.23 173.69) rotate(150.1)"> </text><text class="cls-2" transform="matrix(-0.89, 0.45, -0.45, -0.89, 144.51, 175.84)">I</text><text class="cls-2" transform="translate(140.67 178.16) rotate(160.64)">N</text><text class="cls-2" transform="matrix(-0.98, 0.21, -0.21, -0.98, 126.56, 182.8)"> </text><text class="cls-2" transform="translate(122.57 183.92) rotate(173.79)">T</text><text class="cls-2" transform="matrix(-1, -0.05, 0.05, -1, 111.47, 185.39)">O</text><text class="cls-2" transform="translate(96.1 184.58) rotate(-165.77)">U</text><text class="cls-2" transform="matrix(-0.91, -0.42, 0.42, -0.91, 81.92, 181.04)">C</text><text class="cls-2" transform="matrix(-0.81, -0.58, 0.58, -0.81, 68.85, 175.03)">H</text><text class="cls-2" transform="translate(56.95 166.1) rotate(-137.3)"> </text><text class="cls-2" transform="matrix(-0.7, -0.72, 0.72, -0.7, 53.79, 163.19)"> </text><text class="cls-2" transform="matrix(-0.66, -0.75, 0.75, -0.66, 50.8, 160.12)"> </text><text class="cls-2" transform="translate(47.97 156.87) rotate(-127.82)"> </text><text class="cls-2" transform="translate(45.33 153.48) rotate(-124.64)"> </text><text class="cls-2" transform="translate(42.89 149.96) rotate(-121.48)"> </text><text class="cls-2" transform="translate(40.45 146.69) rotate(-114.39)">G</text><text class="cls-2" transform="translate(34.39 133.1) rotate(-104.58)">E</text><text class="cls-2" transform="matrix(-0.1, -0.99, 0.99, -0.1, 31.41, 121.92)">T</text><text class="cls-2" transform="translate(30.34 109.63) rotate(-89.07)"> </text><text class="cls-2" transform="translate(30.37 105.33) rotate(-86.49)">I</text><text class="cls-2" transform="translate(30.29 100.83) rotate(-79.33)">N</text><text class="cls-2" transform="translate(33.33 86.28) rotate(-72.3)"> </text><text class="cls-2" transform="translate(34.36 82.27) rotate(-66.15)">T</text><text class="cls-2" transform="matrix(0.55, -0.84, 0.84, 0.55, 38.63, 71.94)">O</text><text class="cls-2" transform="translate(47.07 59.06) rotate(-45.64)">U</text><text class="cls-2" transform="matrix(0.82, -0.57, 0.57, 0.82, 57.25, 48.57)">C</text><text class="cls-2" transform="matrix(0.91, -0.41, 0.41, 0.91, 68.98, 40.26)">H</text><g id="그룹_4" data-name="그룹 4"><path id="패스_12" data-name="패스 12" class="cls-1" d="M107.51,154.55a47,47,0,1,1,47-47A47,47,0,0,1,107.51,154.55Zm0-91.21a44.24,44.24,0,1,0,44.3,44.17A44.24,44.24,0,0,0,107.51,63.34Z"/><path id="패스_13" data-name="패스 13" class="cls-1" d="M95.74,100.37a4.25,4.25,0,1,1-4.25-4.25h0a4.25,4.25,0,0,1,4.25,4.25"/><path id="패스_14" data-name="패스 14" class="cls-1" d="M127.77,100.37a4.25,4.25,0,1,1-4.25-4.25,4.25,4.25,0,0,1,4.25,4.25h0"/><path id="패스_15" data-name="패스 15" class="cls-1" d="M107.5,139.74c-18.65,0-34-11.8-34-26.2h2.74c0,12.89,14,23.45,31.27,23.45s31.27-10.56,31.27-23.45h2.75c0,14.4-15.36,26.2-34,26.2Z"/><path id="패스_16" data-name="패스 16" class="cls-1" d="M79.12,114.91H71.57a1.37,1.37,0,1,1-.07-2.74h7.62a1.3,1.3,0,0,1,1.37,1.22v.15A1.38,1.38,0,0,1,79.12,114.91Z"/><path id="패스_17" data-name="패스 17" class="cls-1" d="M143.57,114.91H136a1.37,1.37,0,0,1,0-2.74h7.54a1.31,1.31,0,0,1,1.38,1.22v.15A1.38,1.38,0,0,1,143.57,114.91Z"/></g></g></g></svg>