<svg xmlns="http://www.w3.org/2000/svg" xmlns:xlink="http://www.w3.org/1999/xlink" viewBox="0 0 930 149.64"><defs><style>.cls-1{fill:none;}.cls-2{clip-path:url(#clip-path);}</style><clipPath id="clip-path" transform="translate(0 0)"><rect class="cls-1" width="930" height="149.64"/></clipPath></defs><g id="레이어_2" data-name="레이어 2"><g id="레이어_1-2" data-name="레이어 1"><g id="그룹_50" data-name="그룹 50"><path id="패스_1321" data-name="패스 1321" d="M0,2.52v144.6H56.19V95.21h73.22V62H56.19V37.2h85.16V2.52Z" transform="translate(0 0)"/><path id="패스_1322" data-name="패스 1322" d="M224.49,42.88h1l18.3,51.48H205.93ZM193.22,2.52l-63.81,144.6h57.46l7.37-20.39h61.27l7.37,20.39h59.49L258.56,2.52Z" transform="translate(0 0)"/><path id="패스_1323" data-name="패스 1323" d="M466,2.52V73.77L392.54,2.52H343.48v144.6h51.61V76.92l73.47,70.2h49.07V2.52Z" transform="translate(0 0)"/><g id="그룹_49" data-name="그룹 49"><g class="cls-2"><g id="그룹_48" data-name="그룹 48"><path id="패스_1324" data-name="패스 1324" d="M700.17,16.08Q722.79,32.16,722.79,62H669.15q0-12.6-8-20t-22.76-7.36q-17,0-25,8.83t-8,24.59V81.55q0,15.56,8,24.48T637.88,115q16.27,0,24.66-6.93t8.39-19.55h51.86q0,29.64-22,45.4t-62.16,15.76q-44.74,0-67.76-18.91t-23-55.91q0-37,23-55.9T638.64,0q38.91,0,61.53,16.08" transform="translate(0 0)"/><path id="패스_1325" data-name="패스 1325" d="M861.61,147.12H805.42V91L736,2.52h64.57l33.56,48.13h1L868.73,2.52H930L861.61,91Z" transform="translate(0 0)"/></g></g></g></g></g></g></svg>