<svg xmlns="http://www.w3.org/2000/svg" xmlns:xlink="http://www.w3.org/1999/xlink" viewBox="0 0 926.35 168.38"><defs><style>.cls-1,.cls-3{fill:none;}.cls-2{clip-path:url(#clip-path);}.cls-3{stroke:#000;stroke-width:2px;}</style><clipPath id="clip-path" transform="translate(-1.83 -1.83)"><rect class="cls-1" width="930" height="172.03"/></clipPath></defs><g id="레이어_2" data-name="레이어 2"><g id="레이어_1-2" data-name="레이어 1"><g id="그룹_52" data-name="그룹 52"><g class="cls-2"><g id="그룹_51" data-name="그룹 51"><path id="패스_1326" data-name="패스 1326" class="cls-3" d="M2.83,5.63H160V44.19H65.3V71.76h81.41v36.92H65.3V166.4H2.83Z" transform="translate(-1.83 -1.83)"/><path id="패스_1327" data-name="패스 1327" class="cls-3" d="M365.78,24.09Q393.2,45.36,393.2,86t-27.42,61.92q-27.42,21.27-77.73,21.27t-77.6-21.15q-27.28-21.15-27.28-62t27.28-62q27.28-21.13,77.6-21.14T365.78,24.09ZM257.52,51.43q-10.47,10.05-10.46,27.1v15q0,17.07,10.46,27.11t30.53,10.05q20.07,0,30.67-10.05t10.6-27.11V78.54q0-17.06-10.6-27.11t-30.67-10Q268,41.38,257.52,51.43Z" transform="translate(-1.83 -1.83)"/><path id="패스_1328" data-name="패스 1328" class="cls-3" d="M426.84,5.63h62.47V125.27h99.78V166.4H426.84Z" transform="translate(-1.83 -1.83)"/><rect id="사각형_72" data-name="사각형 72" class="cls-3" x="616.38" y="3.8" width="62.47" height="160.77"/><path id="패스_1329" data-name="패스 1329" class="cls-3" d="M899.75,24.09Q927.17,45.36,927.17,86t-27.42,61.92Q872.33,169.21,822,169.21t-77.6-21.15q-27.28-21.15-27.27-62t27.28-62Q771.7,2.83,822,2.83T899.75,24.09ZM791.49,51.43Q781,61.48,781,78.54V93.49q0,17.07,10.46,27.11T822,130.65q20.07,0,30.67-10.05t10.6-27.11V78.54q0-17.06-10.6-27.11T822,41.38Q801.94,41.38,791.49,51.43Z" transform="translate(-1.83 -1.83)"/></g></g></g></g></g></svg>